<?xml version="1.0" standalone="no"?><!DOCTYPE svg PUBLIC "-//W3C//DTD SVG 1.1//EN" "http://www.w3.org/Graphics/SVG/1.1/DTD/svg11.dtd"><svg t="1552479753843" class="icon" style="" viewBox="0 0 1317 1024" version="1.1" xmlns="http://www.w3.org/2000/svg" p-id="7495" xmlns:xlink="http://www.w3.org/1999/xlink" width="257.2265625" height="200"><defs><style type="text/css"></style></defs><path d="M870.206 359.404c-33.064-121.866-138.56-242.912-277.265-242.912-161.142 0-276.904 112.423-287.99 291.48-100.908 0-188.459 72.695-188.459 185.094 0 112.424 90.449 265.35 185.487 265.35h618.293c117.452-2.222 185.487-168.093 185.487-296.021 0-129.377-63.277-245.497-235.555-202.989v0 0zM794.972 560.412l-175.512 170.942c-2.174 2.101-5.121 3.406-8.333 3.406-3.188 0-6.158-1.303-8.333-3.406l-175.514-170.942c-1.16-1.134-1.643-3.019-1.039-4.709 0.677-1.642 2.173-2.707 3.791-2.707h113.516l-0.217-176.351c0-3.285 1.183-6.569 3.551-9.081 2.416-2.511 5.556-3.767 8.695-3.767h111.172c3.067 0 6.207 1.256 8.622 3.767 2.416 2.512 3.575 5.797 3.575 9.081l-0.242 176.351h113.516c1.619 0 3.116 1.062 3.791 2.707 0.602 1.692 0.119 3.576-1.039 4.709v0 0z" p-id="7496"></path></svg>